<svg xmlns="http://www.w3.org/2000/svg" xmlns:xlink="http://www.w3.org/1999/xlink" viewBox="0 0 532.63 599.86"><defs><style>.cls-1,.cls-2,.cls-3,.cls-4{fill-rule:evenodd;}.cls-1{fill:url(#linear-gradient);}.cls-2{fill:url(#linear-gradient-2);}.cls-3{fill:url(#linear-gradient-3);}.cls-4{fill:url(#linear-gradient-4);}</style><linearGradient id="linear-gradient" y1="297.35" x2="532.63" y2="297.35" gradientUnits="userSpaceOnUse"><stop offset="0" stop-color="#ed6b47"/><stop offset="1" stop-color="#eea949"/></linearGradient><linearGradient id="linear-gradient-2" x1="96.05" y1="302.14" x2="265.4" y2="302.14" xlink:href="#linear-gradient"/><linearGradient id="linear-gradient-3" x1="304.92" y1="299.93" x2="436.58" y2="299.93" xlink:href="#linear-gradient"/><linearGradient id="linear-gradient-4" x1="369.12" y1="178.68" x2="404.61" y2="178.68" xlink:href="#linear-gradient"/></defs><title>Asset 6</title><g id="Layer_2" data-name="Layer 2"><g id="Layer_1-2" data-name="Layer 1"><path class="cls-1" d="M147.74,535.85C60.17,492.23,0,401.82,0,297.35A266,266,0,0,1,112,80.29l-1,23.24A248.41,248.41,0,0,0,148.1,515.84Zm174.2,22a268.2,268.2,0,0,1-114.35-.68l.57-18.29a250,250,0,0,0,113,.77ZM408.21,72A266.38,266.38,0,0,1,386.58,535q-.25-10.38-.82-19.85a248.41,248.41,0,0,0,31.78-414.84Q413.19,85.31,408.21,72ZM266.32,31a267,267,0,0,1,51.72,5l-.37,18.23A249,249,0,0,0,266.32,49c-6.83,0-13.6.29-20.29.83L244.2,32C251.5,31.35,258.87,31,266.32,31Z"/><path class="cls-2" d="M234.08,31.35c-.31-2-1.26-6.63-3.46-7.52-.57-.24-2.42-1-3-.45-1.07.9-.72,6.32-.72,7.7V218.4a21.45,21.45,0,0,1-5.93,14.83,20.23,20.23,0,0,1-29.53,0,21.45,21.45,0,0,1-5.93-14.83V26.16a2.93,2.93,0,0,0-2-3,7,7,0,0,0-2.52-.42,8.09,8.09,0,0,0-2.67.45A3,3,0,0,0,176,26V218.4A21.49,21.49,0,0,1,170,233.23a20.39,20.39,0,0,1-14.77,6.4H155l-.49,0a20.33,20.33,0,0,1-14-6.36,21.46,21.46,0,0,1-5.9-14.5,1.76,1.76,0,0,1,0-.33V31.08c0-1.25.62-5.68.1-6.56-.37-.64-1.78-.79-2.41-.84-3.59-.27-4.49,5-4.89,7.67l-12.3,182.77c0,.2,0,.4-.07.6-2.58,18.45,4.66,26.17,17.36,37.48,6.09,5.43,11.79,10.69,16.88,17.12a110.15,110.15,0,0,1,13.59,22.23c2.8,6.19,5.3,13.7,5,20.56L157.57,552.76a9,9,0,0,1,0,1c-.8,9.29,1.08,20.11,9.84,25.18a19.28,19.28,0,0,0,9.76,2.55,21,21,0,0,0,10.1-2.62C196.19,574,199,564,198.31,554.33a1.61,1.61,0,0,1,0-.31v-.22l-4.56-241.74c-.13-6.76,2.15-14,4.83-20.12a106.92,106.92,0,0,1,12.74-21.51c5.29-6.91,11.3-12.47,17.76-18.23C241.69,241,249,233.27,246.48,215a9.24,9.24,0,0,1-.11-.92Zm30.59,181.27c1.87,13.81.44,26.19-8,37.62-4.35,5.9-9.93,10.83-15.38,15.68s-10.89,9.78-15.39,15.66a87.83,87.83,0,0,0-10.51,17.7c-1.56,3.58-3.39,8.53-3.32,12.48L216.62,553c1.3,17.14-5,33.43-20.53,42a39.49,39.49,0,0,1-19,4.86,37.69,37.69,0,0,1-18.95-5c-15.37-8.9-20.43-25.75-19-42.64a2,2,0,0,0,0-.23l10.26-240.61c.16-3.73-1.9-8.92-3.42-12.28a91.46,91.46,0,0,0-11.22-18.42c-4.34-5.48-9.52-10.12-14.72-14.76-5.44-4.85-11-9.78-15.38-15.68-8.44-11.43-9.87-23.81-8-37.62l12.3-182.87a8.2,8.2,0,0,1,.11-.9c1.4-9.34,5.54-18.3,14.78-22a21.43,21.43,0,0,1,9.67-1.46,25.06,25.06,0,0,1,8.29,2.14c5.3,2.39,10.85,7.7,11,13.88a1.71,1.71,0,0,1,0,.31V218.4a2.28,2.28,0,0,1,0,.26,3.12,3.12,0,0,0,.85,1.92,2.18,2.18,0,0,0,1.25.68h.27a2,2,0,0,0,1.44-.67,3.14,3.14,0,0,0,.83-2.18V26c0-9.59,5.68-16.84,14.52-20a26.23,26.23,0,0,1,8.77-1.53,25.44,25.44,0,0,1,8.86,1.51c8.92,3.26,14.13,10.63,14.13,20.23V218.4a3.19,3.19,0,0,0,.83,2.18,2,2,0,0,0,1.48.67,2.09,2.09,0,0,0,1.49-.67,3.19,3.19,0,0,0,.83-2.18V21.69a8.85,8.85,0,0,1,.18-1.82c1-5.55,5.91-10.14,10.85-12.37a25.12,25.12,0,0,1,8.29-2.14,21.43,21.43,0,0,1,9.67,1.46c9.32,3.75,13.45,12.83,14.82,22.25,0,.22.06.45.07.68Z"/><path class="cls-3" d="M327.28,18.54c-1.22-.1-2.8-.29-4.2-.36.06,1.44.16,2.93.2,4.33v.24l6.41,537.62c0,.15,0,.31,0,.46a1.4,1.4,0,0,1,0,.29c-.52,7.44,1.68,14.82,8.75,18.34a21,21,0,0,0,10.17,2,24.47,24.47,0,0,0,10.82-3c9.11-5.09,12.18-14.78,11.1-24.73a7.16,7.16,0,0,1,0-1.12c-.83-28.58-5-57.39-8.94-85.7-5.12-36.83-10.33-74.1-9.87-111.36a9.17,9.17,0,0,1,7.9-9l.25,0c14.65-1.62,27.16-23.83,32.8-35.51,14.14-29.25,21.69-65.51,24.39-97.73,3.06-36.54.59-76.15-11.25-111-13.28-39.14-38.08-70.78-78.48-83.7M329.9.33a9,9,0,0,1,1.79.36C378.56,15.23,407.76,51,423.15,96.35c12.64,37.25,15.45,79.37,12.18,118.45-2.89,34.46-11.06,72.92-26.19,104.2C401.22,335.39,388,356.1,370,362.81c.26,33.95,5.07,68,9.73,101.57,4,29,8.23,58.35,9.09,87.63,1.83,17.54-4.71,33.67-20.45,42.46a42.73,42.73,0,0,1-19,5.35,39.21,39.21,0,0,1-19.09-3.91c-14-7-19.91-20.66-18.89-35.91L305,22.94c-.14-6.79-.05-14.15,5.48-19C315.71-.63,323.13-.2,329.68.3A1.46,1.46,0,0,1,329.9.33Z"/><path class="cls-4" d="M369.83,100.77a9.43,9.43,0,1,1,17.44-7.17c10.58,25.64,16,53.4,17.1,81.07a294.38,294.38,0,0,1-9.89,87.92,9.45,9.45,0,1,1-18.25-4.88,275.35,275.35,0,0,0,9.3-82.3c-1.06-25.45-6-51-15.7-74.64"/></g></g></svg>